<svg xmlns="http://www.w3.org/2000/svg" viewBox="0 0 24 24" fill="#412991">
  <path d="M22.282 9.821a5.985 5.985 0 0 0-.516-4.91 6.046 6.046 0 0 0-6.51-2.9A6.065 6.065 0 0 0 4.981 4.18a6.065 6.065 0 0 0-3.998 2.9 5.985 5.985 0 0 0-.74 6.97 5.985 5.985 0 0 0 .51 4.91 6.046 6.046 0 0 0 6.51 2.9 6.065 6.065 0 0 0 4.723-1.47 6.065 6.065 0 0 0 2.472-4.13 5.985 5.985 0 0 0-.744-6.97zm-9.022 12.564a4.463 4.463 0 0 1-2.876-1.04l.142-.08 4.772-2.715a.78.78 0 0 0 .39-.672V13.6l2.017 1.15a.074.074 0 0 1 .038.052v5.496a4.5 4.5 0 0 1-4.489 4.429zm-9.66-4.065a4.35 4.35 0 0 1-.532-2.967l.14.084 2.764 1.572a.78.78 0 0 0 .78 0l5.838-3.318v2.3a.074.074 0 0 1-.033.06l-4.755 2.705a4.5 4.5 0 0 1-6.134-1.623zm-.06-10.263a4.46 4.46 0 0 1 2.365-2.97v5.6a.75.75 0 0 0 .387.667l5.815 3.314-2.017 1.15a.074.074 0 0 1-.071 0l-4.84-2.755a4.5 4.5 0 0 1-1.645-6.05zm16.597 3.803-5.83-3.317 2.017-1.15a.074.074 0 0 1 .071 0l4.83 2.75a4.5 4.5 0 0 1 1.733 1.785 4.37 4.37 0 0 1-.4 4.73 4.5 4.5 0 0 1-2.01 1.475v-3.27a.77.77 0 0 0-.408-.658zm1.01-2.98-.143-.084-4.77-2.74a.78.78 0 0 0-.783 0l-5.83 3.318V6.8a.06.06 0 0 1 .028-.06l4.53-2.58a4.5 4.5 0 0 1 4.81.206 4.5 4.5 0 0 1 1.576 1.925 4.35 4.35 0 0 1 .283 2.46zM8.134 12.68 6.117 11.53a.074.074 0 0 1-.038-.055V5.99a4.5 4.5 0 0 1 .702-2.375 4.5 4.5 0 0 1 1.886-1.635 4.5 4.5 0 0 1 4.78.608l-.142.08-4.77 2.718a.78.78 0 0 0-.39.672zm1.097-2.333 2.6-1.48 2.6 1.48v2.96l-2.6 1.48-2.6-1.48z"/>
</svg>
